<mxfile host="app.diagrams.net" agent="Mozilla/5.0 (X11; Linux x86_64) AppleWebKit/537.36 (KHTML, like Gecko) Chrome/118.0.0.0 Safari/537.36" version="24.7.16">
  <diagram name="Page-1" id="0TVNxocPC90FNVOEkqpk">
    <mxGraphModel dx="1364" dy="923" grid="1" gridSize="10" guides="1" tooltips="1" connect="1" arrows="1" fold="1" page="1" pageScale="1" pageWidth="850" pageHeight="1100" math="0" shadow="0">
      <root>
        <mxCell id="0" />
        <mxCell id="1" parent="0" />
        <mxCell id="GXgzEyMB02WQJ9BG6IM7-1" value="" style="rounded=1;whiteSpace=wrap;html=1;" vertex="1" parent="1">
          <mxGeometry x="170" y="290" width="370" height="230" as="geometry" />
        </mxCell>
        <mxCell id="GXgzEyMB02WQJ9BG6IM7-2" value="&lt;font style=&quot;font-size: 24px;&quot;&gt;Docker&amp;nbsp;&lt;/font&gt;&lt;div&gt;&lt;font style=&quot;font-size: 24px;&quot;&gt;80 port&lt;/font&gt;&lt;/div&gt;" style="text;html=1;align=center;verticalAlign=middle;whiteSpace=wrap;rounded=0;" vertex="1" parent="1">
          <mxGeometry x="172" y="360" width="130" height="40" as="geometry" />
        </mxCell>
        <mxCell id="GXgzEyMB02WQJ9BG6IM7-3" value="&lt;font style=&quot;font-size: 24px;&quot;&gt;AI model&lt;/font&gt;" style="shape=process;whiteSpace=wrap;html=1;backgroundOutline=1;" vertex="1" parent="1">
          <mxGeometry x="350" y="350" width="165" height="60" as="geometry" />
        </mxCell>
        <mxCell id="GXgzEyMB02WQJ9BG6IM7-4" value="" style="shape=flexArrow;endArrow=classic;startArrow=classic;html=1;rounded=0;" edge="1" parent="1">
          <mxGeometry width="100" height="100" relative="1" as="geometry">
            <mxPoint x="236.5" y="350" as="sourcePoint" />
            <mxPoint x="236.5" y="220" as="targetPoint" />
          </mxGeometry>
        </mxCell>
        <mxCell id="GXgzEyMB02WQJ9BG6IM7-5" value="&lt;font style=&quot;font-size: 24px;&quot;&gt;System&lt;/font&gt;&lt;div&gt;&lt;font style=&quot;font-size: 24px;&quot;&gt;8001 port&lt;/font&gt;&lt;/div&gt;" style="text;html=1;align=center;verticalAlign=middle;whiteSpace=wrap;rounded=0;" vertex="1" parent="1">
          <mxGeometry x="173" y="170" width="130" height="40" as="geometry" />
        </mxCell>
        <mxCell id="GXgzEyMB02WQJ9BG6IM7-7" value="" style="endArrow=classic;html=1;rounded=0;exitX=0.838;exitY=0;exitDx=0;exitDy=0;exitPerimeter=0;" edge="1" parent="1">
          <mxGeometry width="50" height="50" relative="1" as="geometry">
            <mxPoint x="500.05999999999995" y="290" as="sourcePoint" />
            <mxPoint x="500" y="160" as="targetPoint" />
          </mxGeometry>
        </mxCell>
        <mxCell id="GXgzEyMB02WQJ9BG6IM7-8" value="" style="endArrow=classic;html=1;rounded=0;" edge="1" parent="1">
          <mxGeometry width="50" height="50" relative="1" as="geometry">
            <mxPoint x="400" y="159" as="sourcePoint" />
            <mxPoint x="400" y="291" as="targetPoint" />
          </mxGeometry>
        </mxCell>
        <mxCell id="GXgzEyMB02WQJ9BG6IM7-9" value="&lt;font style=&quot;font-size: 14px;&quot;&gt;{&quot;coords&quot;: [[8.0, -5.0]]}&lt;/font&gt;" style="text;html=1;align=center;verticalAlign=middle;whiteSpace=wrap;rounded=0;" vertex="1" parent="1">
          <mxGeometry x="293" y="130" width="180" height="30" as="geometry" />
        </mxCell>
        <mxCell id="GXgzEyMB02WQJ9BG6IM7-11" value="&lt;font style=&quot;font-size: 14px;&quot;&gt;{&quot;label&quot;: 0}&lt;/font&gt;" style="text;html=1;align=center;verticalAlign=middle;whiteSpace=wrap;rounded=0;" vertex="1" parent="1">
          <mxGeometry x="420" y="130" width="180" height="30" as="geometry" />
        </mxCell>
      </root>
    </mxGraphModel>
  </diagram>
</mxfile>
